<?xml version="1.0" encoding="utf-8"?>
<!-- Generator: Adobe Illustrator 24.0.3, SVG Export Plug-In . SVG Version: 6.00 Build 0)  -->
<svg version="1.1" id="Calque_1" xmlns="http://www.w3.org/2000/svg" xmlns:xlink="http://www.w3.org/1999/xlink" x="0px" y="0px"
	 viewBox="0 0 566.9 566.9" style="enable-background:new 0 0 566.9 566.9;" xml:space="preserve">
<style type="text/css">
	.st0{fill:#010202;}
</style>
<g>
	<polygon class="st0" points="167.2,215.6 167.2,215.6 141.2,189.3 141.2,189.3 115.2,215.6 89.3,189.3 63.3,215.6 63.3,215.6 
		11.4,268.2 37.3,294.5 89.3,241.9 115.2,268.2 115.2,268.2 115.2,268.2 141.2,241.9 193.2,294.5 219.1,268.2 	"/>
	<polygon class="st0" points="115.2,320.8 89.3,294.5 63.3,320.8 89.3,347.1 89.3,347.1 115.2,373.4 115.2,373.4 115.3,373.4 
		141.2,347.1 141.2,347.1 167.2,320.8 141.2,294.5 	"/>
</g>
<g>
	<g>
		<path class="st0" d="M353.3,272c5.1,0,8.3,3.4,8.3,8.7c0,5.2-5.2,10.3-10.4,10.3c-5.1,0-8.3-3.3-8.3-8.6
			C342.8,275.8,348.1,272,353.3,272 M351.2,295.8c3.7,0,7.5-1.7,10.5-4.6c3-2.9,4.7-6.8,4.7-10.5c0-7.9-5.4-13.5-13-13.5
			c-3.8,0-7.6,1.5-10.4,4.1c-3.1,2.8-4.7,6.8-4.7,11.1c0,3.9,1.2,7.2,3.6,9.6C344.1,294.5,347.4,295.8,351.2,295.8"/>
		<path class="st0" d="M325.5,291.1c-1.9,0.3-3.8-0.9-5.3-3.5l-4,2.4c2.2,3.8,5.4,5.8,8.8,5.8c0.4,0,0.8,0,1.3-0.1
			c3.5-0.5,6.4-3.1,7.3-6.4c1.3-5.3-2.9-8.8-6-11.3c-1-0.8-2-1.7-2.5-2.3c-0.8-1-0.7-2.1-0.4-2.9c0.2-0.5,0.6-1.2,1.7-1.4
			c1.3-0.2,2.5,0.2,3.6,1.1c0.9,0.8,1.4,1.7,1.4,1.7l2.1-1.1l2.1-1.1c-0.1-0.3-3.2-6.3-9.8-5.4c-2.4,0.3-4.4,1.9-5.4,4.3
			c-1,2.6-0.6,5.5,1.1,7.6c0.8,1.1,2,2,3.2,3c2.9,2.4,4.9,4.3,4.4,6.5C328.6,289.5,327.3,290.9,325.5,291.1"/>
	</g>
	<polygon class="st0" points="268,267.7 259.2,286.1 255.1,267.7 250,267.7 242.7,295 248.4,295 252.5,279.1 256.1,295 260.5,295 
		267.8,279.1 267.8,295 272.8,295 272.8,267.7 	"/>
	<polygon class="st0" points="315.2,267.7 310,267.7 306.5,295 311.8,295 	"/>
	<polygon class="st0" points="377.1,277.2 386.4,295 391.4,295 394.8,267.7 389.5,267.7 387,286.1 377.8,267.7 372.8,267.7 369,295 
		375,295 	"/>
	<polygon class="st0" points="421.2,295 435.4,267.7 429.5,267.7 419.6,286.7 414.9,267.7 409.2,267.7 416,295 	"/>
	<path class="st0" d="M487.6,276.5l2.1,8.1h-6.4L487.6,276.5z M477.8,295l3.1-5.9h10l1.5,5.9h5.2l-6.8-27.3h-4.6L471.5,295H477.8z"
		/>
	<polygon class="st0" points="510.6,267.7 505.3,267.7 501.5,295 514.8,295 515.8,290.2 507.5,290.2 	"/>
	<g>
		<path class="st0" d="M536.9,281.9c-1.1,9.7-12.3,8.2-12.3,8.2l1.9-17.5C526.5,272.6,538,272.2,536.9,281.9 M527.9,267.7
			c-4.6-0.1-5.5,0-5.5,0l-3.7,27.3h10.3c4.2,0,12.3-3,13.1-14C542.8,270,532.4,267.8,527.9,267.7"/>
	</g>
	<polygon class="st0" points="444.3,267.7 439.2,267.7 435.6,295 440.9,295 	"/>
	<polygon class="st0" points="549,267.7 545.4,295 550.7,295 554.1,267.7 	"/>
	<polygon class="st0" points="459.1,295 473.3,267.7 467.4,267.7 457.5,286.7 452.9,267.7 447.1,267.7 453.9,295 	"/>
	<path class="st0" d="M288.3,284.6l4.3-8.1l2.1,8.1H288.3z M297.4,295h5.2l-6.8-27.3h-4.6L276.5,295h6.3l3.1-5.9h10L297.4,295z"/>
</g>
</svg>
