<?xml version="1.0" encoding="utf-8"?>
<!-- Generator: Adobe Illustrator 24.0.3, SVG Export Plug-In . SVG Version: 6.00 Build 0)  -->
<svg version="1.1" id="Calque_1" xmlns="http://www.w3.org/2000/svg" xmlns:xlink="http://www.w3.org/1999/xlink" x="0px" y="0px"
	 viewBox="0 0 566.93 566.93" style="enable-background:new 0 0 566.93 566.93;" xml:space="preserve">
<style type="text/css">
	.st0{fill:#010202;}
</style>
<g>
	<polygon class="st0" points="371.46,227.45 371.47,227.43 329.52,184.96 329.51,184.97 287.56,227.45 245.59,184.95 203.64,227.43 
		203.65,227.45 119.72,312.44 161.67,354.92 245.59,269.94 287.54,312.42 287.55,312.41 287.57,312.43 329.53,269.94 413.46,354.94 
		455.41,312.46 	"/>
	<polygon class="st0" points="287.57,397.42 245.6,354.92 203.65,397.4 245.62,439.9 245.61,439.91 287.56,482.39 287.57,482.37 
		287.59,482.39 329.54,439.91 329.52,439.9 371.49,397.4 329.54,354.92 	"/>
	<g>
		<g>
			<path class="st0" d="M212.65,92.93c8.17,0,13.46,5.53,13.46,14.08c0,8.41-8.34,16.67-16.84,16.67c-8.32,0-13.49-5.35-13.49-13.95
				C195.78,99.21,204.36,92.93,212.65,92.93 M209.28,131.37c6,0,12.16-2.69,16.9-7.37c4.79-4.73,7.53-10.92,7.53-16.99
				c0-12.82-8.66-21.78-21.06-21.78c-6.19,0-12.32,2.4-16.83,6.58c-4.93,4.57-7.64,10.93-7.64,17.91c0,6.26,2,11.64,5.8,15.57
				C197.82,129.27,203.11,131.37,209.28,131.37"/>
			<path class="st0" d="M167.81,123.89c-3.14,0.47-6.09-1.47-8.54-5.62l-6.52,3.95c3.59,6.09,8.66,9.43,14.14,9.43
				c0.67,0,1.35-0.05,2.03-0.15c5.59-0.83,10.41-5.08,11.72-10.32c2.12-8.52-4.7-14.16-9.68-18.27c-1.66-1.37-3.23-2.67-4.04-3.71
				c-1.22-1.57-1.13-3.44-0.64-4.68c0.29-0.73,1.03-1.99,2.67-2.21c2.14-0.29,4.02,0.3,5.75,1.83c1.48,1.3,2.27,2.8,2.27,2.81
				l3.38-1.76l3.39-1.73c-0.21-0.42-5.23-10.23-15.83-8.77c-3.92,0.54-7.17,3.14-8.69,6.95c-1.65,4.12-0.99,8.85,1.71,12.32
				c1.33,1.71,3.21,3.26,5.21,4.91c4.72,3.9,7.99,6.93,7.12,10.43C172.78,121.23,170.61,123.47,167.81,123.89"/>
		</g>
		<polygon class="st0" points="74.86,86.05 60.69,115.82 53.97,86.05 45.86,86.05 33.93,130.18 43.21,130.18 49.81,104.44 
			55.68,130.18 62.76,130.18 74.62,104.44 74.62,130.18 82.56,130.18 82.56,86.05 		"/>
		<polygon class="st0" points="151.11,86.05 142.8,86.05 137.06,130.18 145.61,130.18 		"/>
		<polygon class="st0" points="251.19,101.34 266.1,130.18 274.17,130.18 279.67,86.05 271.23,86.05 267.08,115.7 252.29,86.05 
			244.23,86.05 238.12,130.18 247.77,130.18 		"/>
		<polygon class="st0" points="322.43,130.18 345.41,86.05 335.88,86.05 319.87,116.69 312.29,86.05 303.01,86.05 314,130.18 		"/>
		<path class="st0" d="M429.65,100.27l3.42,13.09h-10.31L429.65,100.27z M413.9,130.18l4.98-9.46h16.12l2.47,9.46h8.36l-10.97-44.14
			h-7.49l-23.68,44.14H413.9z"/>
		<polygon class="st0" points="466.9,86.05 458.32,86.05 452.13,130.18 473.63,130.18 475.15,122.38 461.79,122.38 		"/>
		<g>
			<path class="st0" d="M509.29,108.95c-1.83,15.66-19.94,13.29-19.94,13.29l3.15-28.29C492.5,93.96,511.12,93.29,509.29,108.95
				 M494.71,86.05c-7.39-0.09-8.91,0-8.91,0l-5.97,44.14h16.59c6.73,0,19.81-4.88,21.14-22.63C518.88,89.8,502.1,86.14,494.71,86.05
				"/>
		</g>
		<polygon class="st0" points="359.74,86.05 351.43,86.05 345.68,130.18 354.24,130.18 		"/>
		<polygon class="st0" points="528.8,86.05 523.05,130.18 531.61,130.18 537.11,86.05 		"/>
		<polygon class="st0" points="383.67,130.18 406.64,86.05 397.11,86.05 381.1,116.69 373.53,86.05 364.24,86.05 375.24,130.18 		
			"/>
		<path class="st0" d="M107.71,113.36l6.89-13.09l3.42,13.09H107.71z M122.42,130.18h8.36l-10.97-44.14h-7.49l-23.68,44.14h10.21
			l4.98-9.46h16.12L122.42,130.18z"/>
	</g>
</g>
</svg>
